<svg width="32" height="32" version="1.1" viewBox="0 0 32 32" xmlns="http://www.w3.org/2000/svg">
 <circle cx="16" cy="16" r="16" fill="white"/>
 <path d="m23.43 14.38c-0.0094-1.35e-4 -0.01945 0.0014-0.03019 0.0058-0.02149 0.0089-0.0397 0.03541-0.0414 0.05941l9.1e-5 -0.0011c-0.0062 0.06449-0.07546 0.1977-0.2052 0.3534-0.1297 0.1557-0.3174 0.3382-0.5532 0.5247-0.4716 0.373-1.136 0.7619-1.918 0.9931-1.563 0.4624-3.594 0.301-5.531-1.88v-9.1e-5c-0.01607-0.01806-0.03857-0.0306-0.06153-0.0339-0.02295-0.0033-0.04474 0.0016-0.06426 0.0098-0.03905 0.01645-0.07263 0.04633-0.1047 0.08192-0.06412 0.07118-0.1197 0.1659-0.1438 0.242-0.1484 0.4689 0.1262 1.14 0.4424 1.852 0.3163 0.7124 0.681 1.466 0.7462 2.066 0.1778 1.638-0.2775 2.791-1.057 3.523-0.7791 0.7322-1.887 1.045-3.02 0.9859-1.133-0.0592-2.289-0.491-3.16-1.241-0.871-0.7505-1.458-1.818-1.458-3.156 0-8e-3 -7.458e-4 -0.01733-0.00662-0.02842-0.00588-0.01109-0.01951-0.02257-0.03293-0.02586-0.02684-0.0066-0.03978 0.0045-0.04943 0.01165-0.01925 0.01419-0.03236 0.03129-0.03831 0.05879v9.1e-5c-0.2949 1.355 0.1955 2.914 1.141 4.262 0.9457 1.348 2.348 2.487 3.892 2.998 1.544 0.5117 3.231 0.3929 4.726-0.7757 1.496-1.169 2.799-3.381 3.596-7.049 0.03452-0.1592 0.238-0.4142 0.5275-0.7062 0.2896-0.292 0.6627-0.6268 1.032-0.9761 0.3688-0.3493 0.7335-0.713 1.007-1.065 0.2739-0.3523 0.46-0.6934 0.46-1.006 0-0.02612-0.01382-0.0434-0.02675-0.05499s-0.02735-0.01931-0.04352-0.02401c-0.0081-0.0023-0.01682-0.0042-0.02622-0.0043zm-5.498-8.416c-0.9215 0.00643-1.887 0.3151-2.815 1.04-1.131 0.8836-2.206 2.384-3.089 4.706-0.04548 0.1198-0.1657 0.2699-0.3248 0.4291s-0.3562 0.3289-0.5541 0.4977-0.3965 0.3368-0.5594 0.4942c-0.1625 0.1571-0.29 0.3018-0.3463 0.436-0.01329 0.02969-9.1e-5 0.06588 0.02295 0.08156 0.02317 0.01576 0.06197 0.01477 0.08465-0.0088 0.2443-0.2501 1.028-0.9767 2.074-1.268 1.046-0.2912 2.351-0.1558 3.671 1.33l9e-5 9e-5v9.1e-5c0.01275 0.01425 0.03139 0.02469 0.05014 0.02736 0.01875 0.0027 0.03597-0.0014 0.05076-0.0076 0.02957-0.01247 0.05286-0.03372 0.07503-0.05835 0.04435-0.04926 0.0817-0.1127 0.09878-0.1664 0.1016-0.321-0.08386-0.7684-0.294-1.243-0.2102-0.4741-0.4518-0.9749-0.4955-1.368v-9.1e-5c-0.1176-1.085 0.203-1.888 0.7656-2.437 0.5627-0.5484 1.371-0.8411 2.231-0.8867 1.72-0.09122 3.636 0.8058 4.183 2.581l9e-5 3.61e-4 9.1e-5 3.62e-4c0.0095 0.0292 0.04523 0.04539 0.07071 0.03902 0.02548-0.0064 0.04921-0.03745 0.04387-0.06771-0.3342-1.892-2.156-3.82-4.346-4.114-0.1369-0.01836-0.2752-0.03032-0.4146-0.0354-0.06102-0.00222-0.1223-0.00316-0.1837-0.00273z" fill="black" />
</svg>
